<svg width="32.000000" height="32.000000" viewBox="0 0 32 32" fill="none" xmlns="http://www.w3.org/2000/svg" xmlns:xlink="http://www.w3.org/1999/xlink">
	<desc>
			Created with Pixso.
	</desc>
	<defs>
		<clipPath id="clip1_1798">
			<rect rx="0.000000" width="31.861471" height="31.861471" transform="translate(0.069264 0.069264)" fill="white" fill-opacity="0"/>
		</clipPath>
	</defs>
	<rect rx="0.000000" width="31.861471" height="31.861471" transform="translate(0.069264 0.069264)" fill="#FFFFFF" fill-opacity="0"/>
	<g clip-path="url(#clip1_1798)">
		<path d="M1.18 19.23C1.29 19.31 1.41 19.38 1.53 19.47L1.64 19.54C0.82 20.36 0.32 21.23 0.1 22.21C-0.1 23.12 0.16 23.89 0.88 24.5C0.98 24.58 1.08 24.66 1.17 24.74L1.26 24.81C0.72 25.53 0.42 26.26 0.36 27.03C0.28 27.99 0.61 28.68 1.35 29.08C1.89 29.38 2.43 29.66 2.99 29.77C4.11 30 5.24 30.17 6.37 30.27C7.96 30.42 9.67 30.55 11.62 30.65C12.71 30.71 13.97 30.76 15.28 30.76C15.48 30.76 15.69 30.76 15.89 30.76C17.38 30.74 18.7 30.65 19.87 29.78C20 29.67 20.17 29.6 20.34 29.59C20.52 29.58 20.69 29.63 20.84 29.73C21.06 29.83 21.29 29.9 21.53 29.93C21.58 29.94 21.63 29.95 21.68 29.96C23.72 30.34 25.8 30.29 27.82 30.24C28.12 30.24 28.42 30.23 28.72 30.23C29.82 30.21 30.59 29.58 30.94 28.43C31.06 28.04 31.14 27.64 31.19 27.24L31.25 26.6C31.4 25.19 31.55 23.73 31.65 22.29C31.88 19 31.96 15.63 31.88 12.26C31.86 11.6 31.82 10.95 31.76 10.34C31.69 9.55 31.3 8.95 30.66 8.62C30.12 8.35 29.52 8.04 28.88 7.9C26.95 7.46 24.95 7.56 23.2 7.66C23.02 7.67 22.83 7.67 22.65 7.67C22.06 7.67 21.44 7.67 20.84 7.99C20.25 6.51 19.24 5.39 18.33 4.49C17.98 4.14 17.62 3.79 17.26 3.44C16.69 2.89 16.11 2.32 15.55 1.75C14.61 0.8 13.41 0.48 11.87 0.76C11.62 0.81 11.38 0.91 11.16 1.05C10.95 1.19 10.76 1.37 10.62 1.59C10.31 2.05 10.2 2.61 10.31 3.15C10.38 3.51 10.48 3.86 10.63 4.19C10.96 4.92 11.32 5.63 11.73 6.42C11.78 6.52 11.83 6.62 11.89 6.71C12.08 7.04 12.24 7.4 12.33 7.77C12.31 7.78 12.29 7.78 12.26 7.79C12.21 7.81 12.16 7.82 12.1 7.82C11.42 7.83 10.74 7.84 10.06 7.84C9 7.85 7.91 7.86 6.84 7.87C5.69 7.89 4.56 8.07 3.46 8.39C2.57 8.64 1.78 9.14 1.17 9.83C-0.04 11.21 0.01 12.78 1.29 14.03C1.3 14.04 1.3 14.06 1.31 14.08C1.31 14.09 1.31 14.1 1.32 14.11C0.69 14.75 0.26 15.56 0.08 16.44C-0.18 17.62 0.18 18.55 1.18 19.23ZM3.55 14.72C4.02 14.61 4.34 14.3 4.37 13.91C4.42 13.41 3.9 13.21 3.59 13.09C3.42 13.03 3.25 12.98 3.08 12.94C2.95 12.91 2.82 12.88 2.7 12.84C2.11 12.65 1.93 12.33 2.07 11.72C2.17 11.25 2.42 10.82 2.79 10.49C3.57 9.8 4.36 9.45 5.28 9.39L5.37 9.38C5.38 9.38 5.38 9.38 5.38 9.38C7.34 9.26 9.37 9.13 11.38 9.32C11.92 9.37 12.48 9.36 13.02 9.3C13.4 9.26 13.64 9.15 13.77 8.96C13.9 8.78 13.91 8.53 13.82 8.2C13.57 7.36 13.28 6.53 12.94 5.72C12.78 5.33 12.6 4.94 12.43 4.57C12.43 4.56 12.43 4.56 12.43 4.56C12.21 4.09 11.99 3.61 11.81 3.12C11.66 2.73 11.65 2.45 11.77 2.28C11.89 2.1 12.17 2.01 12.61 2.02C13.42 2.02 14.01 2.26 14.48 2.77C14.92 3.25 15.39 3.74 15.85 4.2C16.56 4.94 17.3 5.7 17.98 6.49C19.32 8.05 19.93 9.65 19.85 11.36C19.81 12.24 19.83 13.12 19.88 14C19.91 14.68 19.87 15.36 19.79 16.04C19.74 16.46 19.7 16.89 19.68 17.31C19.62 18.91 19.58 20.53 19.55 22.1L19.54 22.1C19.54 22.13 19.54 22.15 19.54 22.18C19.52 23.09 19.5 24 19.47 24.92L19.47 24.96L19.47 24.96C19.45 25.69 19.43 26.44 19.34 27.18C19.19 28.42 18.74 28.87 17.56 28.98C16.64 29.06 15.69 29.07 14.78 29.08L14.78 29.08C14.43 29.08 14.08 29.08 13.73 29.09C13.36 29.1 12.98 29.09 12.62 29.09C12.61 29.09 12.61 29.09 12.61 29.09C12.46 29.09 12.31 29.09 12.16 29.09L12.16 29.07L12.1 29.06C11.41 29.01 10.72 28.96 10.03 28.91C8.25 28.79 6.4 28.66 4.59 28.49C3.86 28.42 3.13 28.17 2.51 27.93C1.98 27.72 1.87 27.49 1.99 26.87C2.07 26.5 2.19 26.15 2.36 25.82C2.6 25.39 2.89 25.2 3.31 25.22C3.63 25.22 3.95 25.13 4.22 24.97C4.45 24.84 4.69 24.56 4.69 24.33C4.69 24.11 4.45 23.82 4.23 23.7C3.91 23.54 3.56 23.43 3.2 23.38C2.66 23.27 2.29 23.15 2.18 22.93C2.07 22.74 2.12 22.44 2.37 21.84C2.74 20.93 3.24 20.37 3.94 20.05C4.15 19.97 4.33 19.83 4.45 19.63C4.57 19.43 4.62 19.2 4.58 18.97C4.55 18.46 4.17 18.27 3.81 18.14C3.62 18.08 3.43 18.03 3.24 17.98C3.24 17.98 3.24 17.98 3.24 17.97C3.04 17.92 2.84 17.87 2.65 17.8C2.06 17.59 1.92 17.36 1.99 16.75C2.15 15.56 2.62 14.94 3.55 14.72L3.55 14.72ZM23.75 28.65C23.04 28.62 22.34 28.54 21.64 28.42C20.97 28.31 20.97 28.27 21.03 27.56C21.15 26.25 21.25 24.88 21.33 23.38L21.37 22.68C21.37 22.68 21.37 22.67 21.37 22.67C21.46 20.93 21.56 19.12 21.59 17.35C21.63 15.63 21.61 13.88 21.6 12.19C21.6 12.19 21.6 12.19 21.6 12.19C21.59 11.78 21.59 11.36 21.59 10.95C21.58 10.64 21.56 10.33 21.52 10.02C21.5 9.89 21.49 9.75 21.48 9.61C22.03 9.6 22.59 9.57 23.13 9.54C23.14 9.54 23.14 9.54 23.15 9.54C24.84 9.46 26.44 9.38 28.07 9.6C28.11 9.61 28.16 9.61 28.21 9.62C28.28 9.63 28.35 9.63 28.42 9.65C29.92 9.93 30.14 10.2 30.11 11.7L30.1 12.36C30.1 12.39 30.1 12.42 30.1 12.45C30.04 16 29.98 19.67 29.86 23.28C29.82 24.56 29.66 25.87 29.51 27.13L29.47 27.51C29.35 28.45 29.16 28.64 28.29 28.67C26.77 28.72 25.27 28.69 23.75 28.65L23.75 28.65Z" fill="#3A353E" fill-opacity="1.000000" fill-rule="nonzero"/>
		<path d="M3.55 14.72C4.02 14.61 4.34 14.3 4.37 13.91C4.42 13.41 3.9 13.21 3.59 13.09C3.42 13.03 3.25 12.98 3.08 12.94C2.95 12.91 2.82 12.88 2.7 12.84C2.11 12.65 1.93 12.33 2.07 11.72C2.17 11.25 2.42 10.82 2.79 10.49C3.57 9.8 4.36 9.45 5.28 9.39L5.37 9.38L5.38 9.38C7.34 9.26 9.37 9.13 11.38 9.32C11.92 9.37 12.48 9.36 13.02 9.3C13.4 9.26 13.64 9.15 13.77 8.96C13.9 8.78 13.91 8.53 13.82 8.2C13.57 7.36 13.28 6.53 12.94 5.72C12.78 5.33 12.6 4.94 12.43 4.57L12.43 4.56C12.21 4.09 11.99 3.61 11.81 3.12C11.66 2.73 11.65 2.45 11.77 2.28C11.89 2.1 12.17 2.01 12.61 2.02C13.42 2.02 14.01 2.26 14.48 2.77C14.92 3.25 15.39 3.74 15.85 4.2C16.56 4.94 17.3 5.7 17.98 6.49C19.32 8.05 19.93 9.65 19.85 11.36C19.81 12.24 19.83 13.12 19.88 14C19.91 14.68 19.87 15.36 19.79 16.04C19.74 16.46 19.7 16.89 19.68 17.31C19.62 18.91 19.58 20.53 19.55 22.1L19.54 22.1L19.54 22.18C19.52 23.09 19.5 24 19.47 24.92L19.47 24.96L19.47 24.96C19.45 25.69 19.43 26.44 19.34 27.18C19.19 28.42 18.74 28.87 17.56 28.98C16.64 29.06 15.69 29.07 14.78 29.08L14.78 29.08C14.43 29.08 14.08 29.08 13.73 29.09C13.36 29.1 12.98 29.09 12.62 29.09L12.61 29.09C12.46 29.09 12.31 29.09 12.16 29.09L12.16 29.07L12.1 29.06C11.41 29.01 10.72 28.96 10.03 28.91C8.25 28.79 6.4 28.66 4.59 28.49C3.86 28.42 3.13 28.17 2.51 27.93C1.98 27.72 1.87 27.49 1.99 26.87C2.07 26.5 2.19 26.15 2.36 25.82C2.6 25.39 2.89 25.2 3.31 25.22C3.63 25.22 3.95 25.13 4.22 24.97C4.45 24.84 4.69 24.56 4.69 24.33C4.69 24.11 4.45 23.82 4.23 23.7C3.91 23.54 3.56 23.43 3.2 23.38C2.66 23.27 2.29 23.15 2.18 22.93C2.07 22.74 2.12 22.44 2.37 21.84C2.74 20.93 3.24 20.37 3.94 20.05C4.15 19.97 4.33 19.83 4.45 19.63C4.57 19.43 4.62 19.2 4.58 18.97C4.55 18.46 4.17 18.27 3.81 18.14C3.62 18.08 3.43 18.03 3.24 17.98L3.24 17.97C3.04 17.92 2.84 17.87 2.65 17.8C2.06 17.59 1.92 17.36 1.99 16.75C2.15 15.56 2.62 14.94 3.55 14.72L3.55 14.72Z" fill="#FFCFAB" fill-opacity="1.000000" fill-rule="nonzero"/>
		<path d="M23.75 28.65C23.04 28.62 22.34 28.54 21.64 28.42C20.97 28.31 20.97 28.27 21.03 27.56C21.15 26.25 21.25 24.88 21.33 23.38L21.37 22.68L21.37 22.67C21.46 20.93 21.56 19.12 21.59 17.35C21.63 15.63 21.61 13.88 21.6 12.19L21.6 12.19C21.59 11.78 21.59 11.36 21.59 10.95C21.58 10.64 21.56 10.33 21.52 10.02C21.5 9.89 21.49 9.75 21.48 9.61C22.03 9.6 22.59 9.57 23.13 9.54L23.15 9.54C24.84 9.46 26.44 9.38 28.07 9.6C28.11 9.61 28.16 9.61 28.21 9.62C28.28 9.63 28.35 9.63 28.42 9.65C29.92 9.93 30.14 10.2 30.11 11.7L30.1 12.36L30.1 12.45C30.04 16 29.98 19.67 29.86 23.28C29.82 24.56 29.66 25.87 29.51 27.13L29.47 27.51C29.35 28.45 29.16 28.64 28.29 28.67C26.77 28.72 25.27 28.69 23.75 28.65L23.75 28.65Z" fill="#C3F0D2" fill-opacity="1.000000" fill-rule="nonzero"/>
		<path d="M26.53 10.9C25.68 10.5 24.54 10.7 23.81 11.37C23.21 11.91 23.04 12.58 23.28 13.37C23.61 14.48 24.57 15.13 25.91 15.17C25.94 15.17 25.97 15.17 26 15.17C26.56 15.17 27.01 15.02 27.32 14.72C27.68 14.37 27.87 13.83 27.88 13.1L27.88 13.1C27.82 12.03 27.36 11.29 26.53 10.9ZM26.56 13.18C26.56 13.28 26.54 13.37 26.5 13.46C26.46 13.55 26.4 13.63 26.33 13.7C26.21 13.8 26.08 13.88 25.93 13.93C25.78 13.98 25.63 14 25.47 13.99C25.06 13.97 24.56 13.35 24.54 12.84C24.54 12.75 24.56 12.66 24.59 12.58C24.63 12.5 24.68 12.43 24.74 12.37C24.94 12.17 25.21 12.06 25.5 12.05L25.52 12.05C25.78 12.06 26.03 12.16 26.21 12.35C26.32 12.46 26.41 12.59 26.47 12.73C26.53 12.87 26.56 13.03 26.56 13.18Z" fill="#3A353E" fill-opacity="1.000000" fill-rule="nonzero"/>
		<path d="M26.56 13.18C26.56 13.28 26.54 13.37 26.5 13.46C26.46 13.55 26.4 13.63 26.33 13.7C26.21 13.8 26.08 13.88 25.93 13.93C25.78 13.98 25.63 14 25.47 13.99C25.06 13.97 24.56 13.35 24.54 12.84C24.54 12.75 24.56 12.66 24.59 12.58C24.63 12.5 24.68 12.43 24.74 12.37C24.94 12.17 25.21 12.06 25.5 12.05L25.52 12.05C25.78 12.06 26.03 12.16 26.21 12.35C26.32 12.46 26.41 12.59 26.47 12.73C26.53 12.87 26.56 13.03 26.56 13.18Z" fill="#FFFFFF" fill-opacity="1.000000" fill-rule="nonzero"/>
	</g>
</svg>
